<?xml version="1.0" ?><svg id="Layer_1" style="enable-background:new 0 0 50 50;" version="1.1" viewBox="0 0 50 50" xml:space="preserve" xmlns="http://www.w3.org/2000/svg" xmlns:xlink="http://www.w3.org/1999/xlink"><style type="text/css">
	.st0{fill:#F0C4DB;}
	.st1{fill:#FF9D9C;}
	.st2{fill:#9BEAF9;}
	.st3{fill:#E9F4BC;}
	.st4{fill:#505050;}
	.st5{fill:#FEBECC;}
	.st6{fill:#FFFFFF;}
	.st7{fill:#FDE4A1;}
	.st8{fill:#FEE7B5;}
	.st9{fill:#CDF6FC;}
	.st10{fill:#F2C6DD;}
	.st11{opacity:0.1;}
</style><g><path class="st5" d="M1.12,29.44c2.43,0.98,5.08,1.54,7.87,1.54c11.6,0,21-9.4,21-21c0-2.62-0.5-5.13-1.38-7.44H1.12V29.44z"/><g><path class="st2" d="M38.7,24.64c0,1.46-0.17,2.88-0.49,4.24H21.2c-0.28,0-0.54,0.06-0.78,0.16c-0.75,0.31-1.28,1.05-1.28,1.92    v11.93c-3.89-0.26-7.45-1.76-10.29-4.08c-4.1-3.35-6.71-8.44-6.71-14.16c0-5.71,2.61-10.81,6.71-14.16    c3.09-2.53,7.03-4.07,11.31-4.12c0.09-0.01,0.17-0.01,0.26-0.01c0.09,0,0.17,0,0.26,0.01c4.28,0.06,8.22,1.59,11.31,4.12    C36.09,13.83,38.7,18.93,38.7,24.64z"/><path class="st7" d="M48.13,30.95v13.69c0,1.14-0.93,2.07-2.07,2.07H21.2c-1.14,0-2.07-0.92-2.07-2.07v-13.7    c0-1.15,0.93-2.07,2.07-2.07h24.86C47.2,28.88,48.13,29.81,48.13,30.95z"/><path class="st3" d="M45.36,33.71v8.17c-1.14,0-2.07,0.93-2.07,2.07H23.96c0-1.15-0.92-2.07-2.07-2.07v-8.17    c1.14,0,2.07-0.92,2.07-2.07h19.33C43.29,32.78,44.22,33.71,45.36,33.71z"/><g><path class="st4" d="M33.63,35.67c0.46,0,0.83,0.37,0.83,0.83c0,0.41,0.34,0.75,0.75,0.75s0.75-0.34,0.75-0.75     c0-1.02-0.66-1.88-1.58-2.2v-0.2c0-0.41-0.34-0.75-0.75-0.75s-0.75,0.34-0.75,0.75v0.2c-0.92,0.31-1.58,1.17-1.58,2.2     c0,1.28,1.04,2.33,2.33,2.33c0.46,0,0.83,0.37,0.83,0.83s-0.37,0.83-0.83,0.83c-0.46,0-0.83-0.37-0.83-0.83     c0-0.41-0.34-0.75-0.75-0.75s-0.75,0.34-0.75,0.75c0,1.02,0.66,1.88,1.58,2.2v0.2c0,0.41,0.34,0.75,0.75,0.75     s0.75-0.34,0.75-0.75v-0.2c0.92-0.31,1.58-1.17,1.58-2.2c0-1.28-1.04-2.33-2.33-2.33c-0.46,0-0.83-0.37-0.83-0.83     S33.17,35.67,33.63,35.67z"/><path class="st4" d="M46.05,28.13h-6.92c0.21-1.13,0.32-2.3,0.32-3.48c0,0,0,0,0-0.01c0,0,0,0,0-0.01c0-2.24-0.38-4.42-1.14-6.5     c-0.14-0.38-0.58-0.59-0.96-0.45c-0.19,0.07-0.34,0.2-0.42,0.38c-0.09,0.19-0.1,0.39-0.03,0.58c0.61,1.69,0.94,3.44,1.02,5.25     h-7.91c-0.07-3.72-0.66-7.22-1.73-10.23c1.3-0.59,2.52-1.34,3.67-2.21c1.26,1.1,2.36,2.35,3.26,3.76     c0.21,0.34,0.69,0.44,1.03,0.23c0.17-0.11,0.29-0.28,0.33-0.47c0.04-0.2,0.01-0.4-0.1-0.57c-1.09-1.71-2.44-3.22-4.01-4.5     c-3.3-2.71-7.48-4.24-11.76-4.3c-0.22-0.01-0.36-0.01-0.58,0c-0.82,0.02-1.65,0.08-2.45,0.2c-3.42,0.49-6.63,1.9-9.31,4.1     c-4.44,3.62-6.99,8.99-6.99,14.74c0,5.74,2.55,11.11,6.99,14.73c0,0,0,0,0,0c0.38,0.31,0.76,0.6,1.16,0.87     c0.01,0.01,0.01,0.01,0.02,0.02c0.09,0.06,0.19,0.12,0.28,0.18c1.64,1.11,3.43,1.94,5.31,2.48c1.05,0.3,2.14,0.51,3.24,0.63v1.1     c0,1.55,1.26,2.82,2.82,2.82h24.86c1.56,0,2.82-1.27,2.82-2.82V30.95C48.88,29.39,47.61,28.13,46.05,28.13z M29.85,28.13     c0.08-0.9,0.14-1.81,0.15-2.74h7.91c-0.04,0.93-0.13,1.85-0.3,2.73h-0.95v0H29.85z M18.38,41.59c-1.48-0.86-2.85-2.67-3.9-5.13     c1.26-0.46,2.57-0.77,3.9-0.92V41.59z M13.09,37.02c0.82,1.92,1.82,3.48,2.93,4.59c-2.14-0.55-4.15-1.5-5.95-2.82     C11.01,38.1,12.03,37.51,13.09,37.02z M18.38,30.95v3.09c-1.52,0.16-3.01,0.5-4.44,1.02c-1-2.84-1.55-6.15-1.62-9.67h7.34v3.19     c0,0,0,0,0,0C18.89,29.09,18.38,29.96,18.38,30.95z M19.66,7.2v6.63c-1.78-0.08-3.52-0.42-5.18-1.02     C15.86,9.61,17.7,7.61,19.66,7.2z M21.16,7.2c1.96,0.41,3.8,2.4,5.18,5.61c-1.66,0.59-3.4,0.94-5.18,1.02V7.2z M24.82,7.66     c2.13,0.55,4.13,1.5,5.93,2.83c-0.94,0.69-1.96,1.27-3.01,1.75C26.92,10.33,25.93,8.78,24.82,7.66z M16,7.67     c-1.11,1.12-2.1,2.66-2.92,4.57c-1.06-0.49-2.07-1.07-3.02-1.76C11.86,9.17,13.87,8.22,16,7.67z M19.66,15.33v8.56h-7.34     c0.07-3.52,0.62-6.83,1.62-9.67C15.77,14.88,17.7,15.25,19.66,15.33z M21.16,25.39h7.34c-0.02,0.92-0.06,1.84-0.15,2.74l0,0H21.2     c-0.01,0-0.02,0-0.03,0V25.39z M28.51,23.89h-7.34v-8.56c1.96-0.08,3.9-0.45,5.73-1.11C27.89,17.06,28.44,20.37,28.51,23.89z      M8.89,11.45c1.14,0.87,2.36,1.62,3.66,2.2c-1.06,3.01-1.66,6.52-1.73,10.23H2.91C3.12,19.08,5.26,14.62,8.89,11.45z M2.91,25.39     h7.91c0.07,3.72,0.66,7.23,1.73,10.24c-1.3,0.59-2.53,1.33-3.66,2.19C5.26,34.67,3.12,30.2,2.91,25.39z M47.38,44.64     c0,0.73-0.59,1.32-1.32,1.32H21.2c-0.73,0-1.32-0.59-1.32-1.32v-1.77v-8.17v-3.76c0-0.73,0.59-1.32,1.32-1.32h24.86     c0.73,0,1.32,0.59,1.32,1.32V44.64z"/><path class="st4" d="M45.36,32.96c-0.73,0-1.32-0.59-1.32-1.32c0-0.41-0.34-0.75-0.75-0.75H23.96c-0.41,0-0.75,0.34-0.75,0.75     c0,0.73-0.59,1.32-1.32,1.32c-0.41,0-0.75,0.34-0.75,0.75v8.17c0,0.41,0.34,0.75,0.75,0.75c0.73,0,1.32,0.59,1.32,1.32     c0,0.41,0.34,0.75,0.75,0.75h19.33c0.41,0,0.75-0.34,0.75-0.75c0-0.73,0.59-1.32,1.32-1.32c0.41,0,0.75-0.34,0.75-0.75v-8.17     C46.11,33.3,45.78,32.96,45.36,32.96z M44.61,41.23c-0.96,0.26-1.71,1.02-1.97,1.97H24.61c-0.26-0.95-1.01-1.71-1.97-1.97v-6.87     c0.95-0.26,1.7-1.02,1.97-1.97h18.03c0.26,0.95,1.02,1.71,1.97,1.97V41.23z"/></g></g></g></svg>